<svg fill="none" height="32" viewBox="0 0 32 32" width="32" xmlns="http://www.w3.org/2000/svg"><path d="m16 0c8.8366 0 16 7.16344 16 16 0 8.8366-7.1634 16-16 16-8.83656 0-16-7.1634-16-16 0-8.83656 7.16344-16 16-16zm9.8643 8.20312c-.5856-.26448-1.4785-.55034-3.8213 1.10254-2.4459 1.72904-5.0777 5.23104-6.043 7.10844-.9664-1.8784-3.5971-5.3806-6.04297-7.10648-2.34318-1.65309-3.2357-1.36821-3.82129-1.10157-.6784.304-.80273 1.34584-.80273 1.95705.00001.6134.33602 5.0219.55469 5.7598.72531 2.4319 3.30045 3.2536 5.6748 2.9902-3.47721.5152-6.56737 1.7814-2.51758 6.291 4.45648 4.6132 6.10808-.9885 6.95508-3.8291.8469 2.8406 1.8224 8.2407 6.874 3.8291 3.7927-3.8291 1.0417-5.7758-2.4355-6.291 2.3733.2634 4.9495-.5583 5.6738-2.9902.2187-.7369.5547-5.1466.5547-5.7588 0-.61338-.1244-1.65378-.8027-1.96098z" fill="#fff"/></svg>