<svg fill="none" height="32" viewBox="0 0 32 32" width="32" xmlns="http://www.w3.org/2000/svg"><path d="m16 0c8.8366 0 16 7.16344 16 16 0 8.8366-7.1634 16-16 16-8.83656 0-16-7.1634-16-16 0-8.83656 7.16344-16 16-16zm.3867 20.5332c-.0311.8949-.4084 1.7433-1.0527 2.3652-.6442.6218-1.5051.9683-2.4004.9678-1.8932 0-3.46659-1.546-3.4668-3.4658 0-2.2933 2.2132-4.0133 4.4932-3.3066v-4.2139c-4.60002-.6133-8.62699 2.9605-8.62699 7.5205.00021 4.4398 3.68038 7.5996 7.58689 7.5996 4.1866 0 7.5867-3.3998 7.5869-7.5996v-8.3867c1.6706 1.1996 3.6767 1.8433 5.7334 1.8398v-4.1201s-2.5069.1197-4.3203-1.97363c-.9111-1.04061-1.4132-2.37664-1.4131-3.75977h-4.1201z" fill="#fff"/></svg>