<svg fill="none" height="32" viewBox="0 0 32 32" width="32" xmlns="http://www.w3.org/2000/svg"><path d="m16 0c8.8366 0 16 7.16344 16 16 0 8.8366-7.1634 16-16 16-8.83656 0-16-7.1634-16-16 0-8.83656 7.16344-16 16-16zm-9.33301 25.417h4.00001v-13.3643h-4.00001zm6.67871 0h3.9873v-6.4531c.0001-1.6986.3905-3.3446 2.6738-3.3448 2.355 0 2.6602 1.9455 2.6602 3.458v6.3399h4v-7.1514c0-3.5124-.9336-6.2127-5.252-6.2129-.8085-.0349-1.6126.1409-2.333.5098-.7204.369-1.3331.919-1.7773 1.5957v-2.1211h-3.959zm-4.67871-18.75001c-.39608.00191-.78266.12074-1.11133.3418-.32869.22108-.58523.53421-.73632.90039-.15102.36606-.19036.76881-.11329 1.15723.07713.38841.2675.74573.54688 1.02639.27896.2804.63555.4713 1.02344.5488.38798.0775.79091.0386 1.15625-.1133.36537-.1531.67688-.4115.89648-.74119.2197-.32975.3374-.71706.3379-1.11328.0009-.26316-.0504-.52417-.1504-.76758-.1001-.24337-.2469-.46495-.4326-.65137-.18576-.18641-.40641-.33459-.64943-.43554-.24314-.10098-.5043-.15235-.76758-.15235z" fill="#fff"/></svg>