<svg fill="none" height="32" viewBox="0 0 32 32" width="32" xmlns="http://www.w3.org/2000/svg"><path d="m16 0c8.8366 0 16 7.16344 16 16 0 8.8366-7.1634 16-16 16-8.83656 0-16-7.1634-16-16 0-8.83656 7.16344-16 16-16zm-4.4805 5.33301c-1.64061.00012-3.21387.65238-4.37399 1.8125-1.16012 1.16011-1.81238 2.73338-1.8125 4.37399v8.961c.00025 3.4129 2.77355 6.1862 6.18649 6.1865h8.961c1.6406-.0001 3.2139-.6524 4.374-1.8125s1.8124-2.7334 1.8125-4.374v-8.961c-.0003-3.41293-2.7736-6.18623-6.1865-6.18649zm9.1739 2.13379c2.1226.00002 3.8398 1.7172 3.8398 3.8398v9.3868c0 1.0184-.4049 1.9947-1.125 2.7148s-1.6964 1.125-2.7148 1.125h-9.3868c-2.12261 0-3.83979-1.7172-3.8398-3.8398v-9.3868c0-1.0184.40486-1.99467 1.125-2.7148.72013-.72014 1.6964-1.125 2.7148-1.125zm-4.6934 3.2002c-1.4145 0-2.7713.5613-3.7715 1.5615s-1.5615 2.357-1.5615 3.7715.5613 2.7713 1.5615 3.7715 2.357 1.5615 3.7715 1.5615 2.7713-.5613 3.7715-1.5615 1.5615-2.357 1.5615-3.7715-.5613-2.7713-1.5615-3.7715-2.357-1.5615-3.7715-1.5615zm0 2.1328c.8487 0 1.6626.3374 2.2627.9375s.9375 1.414.9375 2.2627-.3374 1.6626-.9375 2.2627-1.414.9375-2.2627.9375-1.6626-.3374-2.2627-.9375-.9375-1.414-.9375-2.2627.3374-1.6626.9375-2.2627 1.414-.9375 2.2627-.9375zm5.5996-3.73339c-.3534.00009-.6924.14073-.9424.39062-.25.25005-.3906.58977-.3906.94337.0001.3535.1407.6924.3906.9424.25.2499.5889.3905.9424.3906.3536 0 .6933-.1406.9434-.3906.2499-.25.3905-.589.3906-.9424 0-.3536-.1406-.69332-.3906-.94337-.2501-.25005-.5898-.39062-.9434-.39062z" fill="#fff"/></svg>