<svg xmlns="http://www.w3.org/2000/svg" viewBox="0 0 964 98"><path opacity=".77" fill="#FFF" d="M23.1 22l8.2 42.3 10.3-52c.9-4.5 3.1-6.8 6.7-6.8 3.8 0 6.1 2 6.8 6l10 53.5 8.5-41.5c.6-2.9.9-5.2.9-6.7 0-2.7-1.4-4.1-4.2-4.1-.6 0-1.5.1-2.6.2s-2 .2-2.6.2c-2.9 0-4.3-1.2-4.3-3.5s1.4-3.4 4.2-3.4c1.1 0 2.2.1 3.3.2 5.5.7 9.1 1 10.8 1 1.3 0 3.3-.2 5.9-.6 2.6-.4 4.6-.6 6-.6 2.5 0 3.7 1.2 3.7 3.6 0 2.2-1.2 3.3-3.6 3.3-.4 0-1-.1-1.8-.2-.8-.2-1.4-.2-1.8-.2-1.4 0-2.4.5-3.1 1.6-.6 1.1-1.4 3.5-2.2 7.2L71 69.1c-.9 3.7-2.9 5.5-6.2 5.5-3.5 0-5.6-2.3-6.5-6.8L48.2 14.9 37.1 69.2c-.7 3.6-2.6 5.4-5.7 5.4s-5.1-1.8-6-5.5L13.5 19.3c-.6-2.5-1.4-4.2-2.2-5.1S8.9 12.8 7 12.8h-.7l-2.2.3C2 13.1.9 12 .9 9.8c0-2.4 1.2-3.6 3.5-3.6.9 0 2 .1 3.2.3 3.6.6 7.1.9 10.5.9 1.6 0 5.3-.3 11-1 1-.1 2-.2 2.9-.2 2.4 0 3.6 1.1 3.6 3.3 0 2.4-1.5 3.6-4.4 3.6-.6 0-1.5-.1-2.8-.2-1.2-.1-2.1-.2-2.8-.2-2.3 0-3.5 1.1-3.5 3.3 0 .8.1 1.7.3 2.8l.7 3.2zM116 8.8l-.4 19.5c2.7-2.5 5.1-4.3 7.3-5.2 2.2-1 4.8-1.5 7.8-1.5 5.8 0 10.4 1.6 13.8 4.9 3.5 3.3 5.2 7.6 5.2 12.9v16.7c0 3.9 0 6.1.1 6.5.3 3.3 1.1 5 2.6 5 .5 0 1.3-.2 2.3-.6.4-.1.9-.1 1.6-.1 2.5 0 3.7 1.1 3.7 3.4s-1.6 3.4-4.8 3.4c-.9 0-2.1-.1-3.8-.3-2.8-.3-5.1-.5-6.8-.5-1.7 0-3.1.1-4 .2-2.8.4-4.5.6-5.2.6-1.2 0-2.2-.4-3-1-.8-.7-1.2-1.6-1.2-2.6 0-.9.4-1.6 1.1-2.2.7-.6 1.5-.9 2.4-.9.7 0 1.6.2 2.6.5.6.2 1.2.3 1.7.3 2 0 3-2.2 3.1-6.5 0-.8.1-2.4.2-4.7v-9.7c0-6.8-.7-11.4-2-13.7-1.9-3.5-5.4-5.2-10.2-5.2-5.3 0-9.1 1.8-11.5 5.4-1.7 2.5-2.5 6.4-2.6 11.9v7.2c0 .4-.1 1.1-.4 2v1.9c0 3.8 0 6 .1 6.6.3 3.3 1.3 4.9 3 4.9.5 0 1.3-.1 2.3-.5 1-.3 1.7-.4 2.2-.4 2.2 0 3.3 1.1 3.3 3.2 0 2.4-1.5 3.6-4.4 3.6-.9 0-2.4-.1-4.2-.3-2.6-.3-4.7-.4-6.5-.4-1.1 0-2.7.1-4.7.3-2.7.3-4.4.4-5.1.4-2.8 0-4.1-1.2-4.1-3.7 0-2.1 1.3-3.1 3.9-3.1.9 0 1.5.1 1.9.3 1.2.3 2 .4 2.4.4 1.1 0 1.8-1 2.2-3 .4-2 .6-6.2.7-12.5v-18c0-10-.2-16.3-.6-18.9-.4-2.6-1.3-4-2.8-4-.5 0-1.2.1-2.1.3-.9.2-1.7.3-2.2.3-2.3 0-3.4-1.1-3.4-3.2 0-.9.4-1.7 1.2-2.4.8-.7 1.8-1 2.9-1 .3 0 1.5.1 3.4.3 1.3.1 2.6.2 4.1.2.6 0 1.4-.1 2.5-.2 1.1-.2 1.8-.2 2.3-.2 1.5 0 2.3 1.1 2.3 3.3v.1zM204.9 74.6c-5.5 0-8.8-2.4-10.1-7.1-3.4 5-8.7 7.5-16 7.5-5.4 0-9.7-1.3-12.9-4a13.3 13.3 0 0 1-4.9-10.7c0-5.5 2.4-9.6 7.1-12.2 1.8-1 3.4-1.6 4.6-1.9 1.3-.3 3.9-.7 7.9-1.1 5.6-.6 9.2-1.4 10.9-2.5 1.7-1.1 2.6-3 2.6-5.9 0-2.7-1-4.9-2.9-6.4-1.9-1.6-4.5-2.4-8-2.4-3 0-5.8.8-8.4 2.5-1 .7-1.5 1.4-1.5 2.1 0 .3.3.6.9 1 .9.7 1.4 1.8 1.4 3.4 0 1.3-.5 2.4-1.5 3.3-1 .9-2.2 1.3-3.6 1.3-1.7 0-3.2-.6-4.4-1.8a6.04 6.04 0 0 1-1.8-4.4c0-3.7 1.9-6.9 5.5-9.6 3.7-2.7 8.2-4 13.5-4 12.1 0 18.2 5.8 18.2 17.5v20.2c0 3.2.1 5.1.2 5.7.4 2.3 1.5 3.5 3.4 3.5 2.3 0 3.5-2.1 3.5-6.4v-4.9c0-2.1 1-3.2 3.1-3.2 2.2 0 3.2 1.6 3.2 4.8V65c.1 6.4-3.3 9.6-10 9.6zm-11.1-19.9v-7.1c-1.5 1.3-3 2.3-4.6 2.8-1.6.5-4.5 1-8.7 1.4-7.6.7-11.4 3.5-11.4 8.4 0 2.5.9 4.5 2.8 6 1.8 1.5 4.3 2.2 7.4 2.2 4.5 0 8-1.2 10.6-3.6 2.6-2.5 3.9-5.9 3.9-10.1zM241.6 59.5v-6.4c.1-2.7 1.3-4.1 3.6-4.1s3.5 1.5 3.5 4.6c0 7.3-.9 12.3-2.8 15.2-2.5 3.9-6.7 5.8-12.4 5.8-5.3 0-9.1-1.7-11.3-5.1-1.7-2.5-2.5-6.7-2.5-12.6v-24c0-1.4-.6-2.1-1.9-2.1h-3.3c-1.1 0-2-.4-2.7-1-.7-.7-1.1-1.6-1.1-2.6 0-.9.4-1.8 1.1-2.5.7-.7 1.5-1.1 2.4-1.1h3.9c1.1 0 1.7-.6 1.7-1.9V11.4c0-2.5 1.3-3.8 3.9-3.8 2.4 0 3.6 1.3 3.6 3.8v10.7c0 1 .6 1.5 1.8 1.5H240c2.5 0 3.8 1.2 3.8 3.5 0 2.5-1.4 3.7-4.1 3.7h-11c-.9 0-1.4.7-1.4 2.1v24.6c0 7 2.3 10.5 7 10.5s7.1-2.9 7.3-8.5zM264.5 19.9c0-5-1.7-7.5-5.1-7.5-.6 0-1.3.1-2.1.2-1.2.2-2.1.3-2.7.3-2.1 0-3.1-1.1-3.1-3.2 0-2.3 1.5-3.5 4.5-3.5.3 0 .8 0 1.3.1l5.3.7a52.53 52.53 0 0 0 12 .1l6.5-.7c1.3-.1 2.9-.2 5-.2 6.1 0 11.1.9 15.2 2.6 5.3 2.3 9.6 6.2 12.7 11.8 3.1 5.6 4.6 12.1 4.6 19.5 0 6.5-1.2 12.4-3.7 17.7-2.5 5.2-5.8 9.1-10.1 11.5-5.1 3-11.3 4.5-18.6 4.5-1.5 0-3-.1-4.5-.2l-6.9-.6c-2.3-.2-4.8-.3-7.3-.3-2.2 0-4 .1-5.4.3l-4.8.7c-.1 0-.4 0-.7.1h-.8c-2.9 0-4.3-1.2-4.3-3.5 0-.9.3-1.7.9-2.4.6-.6 1.3-.9 2.2-.9.7 0 1.6.1 2.7.3.5.1 1.2.2 2.1.2 3.4 0 5.1-2.5 5.1-7.5V19.9zm8.4-1.1V61c0 3.1 1.5 4.9 4.5 5.6 1 .3 3.8.4 8.4.4 8 0 13.8-2.2 17.4-6.5 4.3-5.2 6.5-12 6.5-20.5 0-6.6-1.3-12.3-4-16.9-2.6-4.6-6.2-7.6-10.9-8.9-2.9-.9-6.5-1.3-10.6-1.3-5.3 0-8.5.3-9.6.9-1.1.6-1.7 2.3-1.7 5zM345.7 75c-7 0-12.6-2.4-16.8-7.2-4.2-4.8-6.3-11.3-6.3-19.5 0-8.1 2.1-14.6 6.4-19.5 4.2-4.8 9.9-7.2 17.1-7.2 7.3 0 13 2.4 17.2 7.1 4.2 4.7 6.3 11.2 6.3 19.3 0 8.1-2.2 14.7-6.5 19.6-4.4 4.9-10.2 7.4-17.4 7.4zm.5-46.8c-4.7 0-8.3 1.6-11 4.9-2.7 3.3-4.1 7.9-4.4 13.9v1.3c0 6.3 1.3 11.2 4 14.8 2.6 3.6 6.3 5.4 11 5.4 4.9 0 8.7-1.8 11.5-5.4 2.8-3.6 4.1-8.5 4.1-14.9 0-13.4-5.1-20-15.2-20zM404.5 60.1c0 5 1.7 7.5 5.1 7.5.5 0 1.3-.1 2.4-.2 1.1-.2 1.9-.2 2.4-.2.9 0 1.6.3 2.2 1 .6.6.9 1.4.9 2.2 0 2.3-1.5 3.5-4.5 3.5h-.6c-.3-.1-.6-.1-.7-.1l-4.9-.7c-1.9-.3-4-.4-6.3-.4-2.5 0-4.8.1-6.7.4l-5 .7c-.2 0-.4 0-.7.1h-.7c-2.9 0-4.4-1.2-4.4-3.5 0-2.1 1.1-3.2 3.2-3.2.5 0 1.3.1 2.4.2 1.1.2 1.9.2 2.4.2 3.3 0 5-2.5 5-7.5V19.5c0-4.7-2.4-7.1-7.3-7.1h-3.1c-4.8 0-7.2 2.3-7.2 7 0 1.7 0 2.8.1 3.4l.4 3.7c.1.6.1 1.4.1 2.5 0 4.2-1.3 6.3-3.9 6.3-2.5 0-3.7-1.5-3.7-4.6 0-.9.1-2.4.2-4.5.2-3.2.3-5.2.3-6.1 0-1.7-.1-3.4-.2-5.2-.2-3.5-.3-5-.3-4.5 0-2.8 1.3-4.2 3.8-4.2.9 0 3.1.1 6.5.3.3 0 3.1.1 8.2.4h11.4c1.3 0 4.9-.1 10.7-.2 1.3 0 3.4-.1 6.5-.3 2.7-.2 4.9-.3 6.4-.3 3.3 0 5 1.4 5 4.1v.2c0 .7-.1 1.9-.2 3.7-.2 1.8-.4 3.7-.6 5.8V21c0 1 .1 2.6.3 4.7.3 2.8.4 4.5.4 5.2 0 2.7-1.3 4.1-3.9 4.1-2.5 0-3.8-1.7-3.8-5 0-1.2.1-3 .3-5.4.2-2.4.3-4.2.3-5.4 0-4.6-2.6-6.9-7.9-6.9H412c-2.5 0-4.2.5-5.3 1.5-1.1 1-1.7 2.8-1.8 5.1l-.4 7v34.2zM452.6 8.8l-.4 19.5c2.7-2.5 5.1-4.3 7.3-5.2 2.2-1 4.8-1.5 7.8-1.5 5.8 0 10.4 1.6 13.8 4.9 3.5 3.3 5.2 7.6 5.2 12.9v16.7c0 3.9 0 6.1.1 6.5.3 3.3 1.1 5 2.6 5 .5 0 1.3-.2 2.3-.6.4-.1.9-.1 1.6-.1 2.5 0 3.7 1.1 3.7 3.4s-1.6 3.4-4.8 3.4c-.9 0-2.1-.1-3.8-.3-2.8-.3-5.1-.5-6.8-.5-1.7 0-3.1.1-4 .2-2.8.4-4.5.6-5.2.6-1.2 0-2.2-.4-3-1-.8-.7-1.2-1.6-1.2-2.6 0-.9.3-1.6 1-2.2.7-.6 1.5-.9 2.5-.9.7 0 1.6.2 2.6.5.6.2 1.2.3 1.7.3 2 0 3-2.2 3.1-6.5 0-.8.1-2.4.2-4.7v-9.7c0-6.8-.7-11.4-2-13.7-1.9-3.5-5.4-5.2-10.2-5.2-5.3 0-9.1 1.8-11.5 5.4-1.7 2.5-2.5 6.4-2.6 11.9v7.2c0 .4-.1 1.1-.4 2v1.9c0 3.8 0 6 .1 6.6.3 3.3 1.3 4.9 3 4.9.5 0 1.3-.1 2.3-.5 1-.3 1.7-.4 2.2-.4 2.2 0 3.3 1.1 3.3 3.2 0 2.4-1.5 3.6-4.4 3.6-.9 0-2.4-.1-4.2-.3-2.6-.3-4.7-.4-6.5-.4-1.1 0-2.7.1-4.7.3-2.7.3-4.4.4-5.1.4-2.8 0-4.1-1.2-4.1-3.7 0-2.1 1.3-3.1 3.9-3.1.9 0 1.5.1 1.9.3 1.2.3 2 .4 2.4.4 1.1 0 1.8-1 2.2-3 .4-2 .6-6.2.7-12.5v-18c0-10-.2-16.3-.6-18.9-.4-2.6-1.3-4-2.8-4-.5 0-1.2.1-2.1.3-.9.2-1.7.3-2.2.3-2.3 0-3.4-1.1-3.4-3.2 0-.9.4-1.7 1.2-2.4.8-.7 1.8-1 2.9-1 .3 0 1.5.1 3.4.3 1.3.1 2.6.2 4.1.2.6 0 1.4-.1 2.5-.2 1.1-.2 1.8-.2 2.3-.2 1.5 0 2.3 1.1 2.3 3.3v.1zM541.5 43.9c0 2.5-.2 4.1-.5 4.6-.3.6-1.3.9-2.9.9h-31.8c-.9 0-1.4.1-1.7.4-.3.2-.4.6-.4 1.1 0 5 1.5 9.2 4.5 12.5 3 3.3 6.7 5 11.2 5 2.9 0 5.6-.8 8-2.4 2.4-1.6 4-3.6 4.8-6.1l.9-2.9c.5-1.6 1.6-2.4 3.3-2.4 2.5 0 3.7 1.3 3.7 3.8 0 4.3-2.2 8.2-6.6 11.5-4.4 3.4-9.4 5.1-15 5.1-7 0-12.6-2.4-16.7-7.1-4.1-4.7-6.2-11-6.2-18.9 0-8.1 2.2-14.7 6.6-19.8 4.4-5.1 10.1-7.6 17.2-7.6 6.3 0 11.4 2.1 15.5 6.3 4 4.2 6.1 9.5 6.1 16zm-36.3-2.6c0 .9.7 1.4 2.2 1.4h23.9c1.4 0 2.1-.5 2.1-1.4 0-3.5-1.3-6.6-4-9.2-2.7-2.6-5.8-3.9-9.4-3.9-3.7 0-7.1 1.4-10.2 4.1-3.1 2.6-4.6 5.6-4.6 9zM563.1 32.9l11.5 33.8 12.2-33.3c.3-.9.5-1.7.5-2.2 0-1.1-.8-1.7-2.3-1.7-.8 0-1.4.1-1.9.2-1.1.1-1.8.2-2.1.2-2.2 0-3.3-1.1-3.3-3.2 0-2.3 1.4-3.4 4.3-3.4.4 0 1.1.1 2 .2l3.6.5c.9.1 1.9.2 3 .2s2.8-.1 5-.4c2.2-.3 3.9-.5 5-.5 2.9 0 4.3 1.1 4.3 3.4 0 2.2-1.1 3.2-3.3 3.2-.7 0-1.2-.1-1.5-.2-.9-.2-1.5-.3-1.8-.3-1.3 0-2.6 1.7-3.9 5.1l-13.6 34c-3 7.5-5.8 13-8.5 16.4-4.5 5.8-10.2 8.7-17 8.7-4.1 0-7.5-1-10.2-3.1-2.8-2.1-4.2-4.6-4.2-7.5 0-2.1.6-3.8 1.8-5.1a6.1 6.1 0 0 1 4.7-1.9c1.5 0 2.8.4 3.8 1.3s1.5 2 1.5 3.4c0 2.1-1 3.5-2.9 4.1 1 1.5 2.9 2.2 5.7 2.2 3.5 0 6.7-1.3 9.6-4 2.8-2.6 4.2-5.6 4.2-8.9 0-1.7-.9-4.8-2.7-9.3l-11-27.8-1.2-3.2c-1.1-3-2.4-4.5-3.9-4.5-.4 0-1.1.1-2.1.2-1 .2-1.7.2-2 .2-2.3 0-3.5-1.1-3.5-3.2 0-2.3 1.5-3.4 4.6-3.4 1 0 1.8 0 2.3.1l4 .6h.8c.5.1.9.1 1.2.1 2.4 0 5-.2 7.7-.5 2.1-.2 3.4-.3 4.1-.3 2.8 0 4.2 1.1 4.2 3.3 0 2.2-1.3 3.3-3.8 3.3-.4 0-1-.1-1.9-.2-.9-.1-1.5-.2-1.9-.2-.9 0-1.4.5-1.4 1.4-.1.7.1 1.4.3 2.2z"/><path fill="#FFF" d="M633.8 25.1v10.8l14.5-13.4c2.3-2.1 3.5-3.7 3.5-4.7 0-.5-.1-.9-.4-1.2-.3-.3-.7-.6-1.3-.9a4.3 4.3 0 0 1-1.9-3.7c0-1.7.6-3.1 1.8-4.2 1.2-1.1 2.8-1.6 4.7-1.6 1.3 0 3.1.2 5.5.5s4.3.5 5.5.5c1.4 0 3.3-.2 5.8-.6 1.7-.3 3.1-.4 4.3-.4 2.2 0 3.9.6 5.2 1.9 1.3 1.2 1.9 2.9 1.9 5 0 1.9-.5 3.6-1.5 5s-2.2 2-3.6 2c-.5 0-1.1-.1-2-.3-.8-.2-1.5-.4-2-.4-.8 0-1.9.6-3.4 1.7l-1.8 1.4-9.7 8.5c-2 1.7-3 3-3 3.7 0 .4.4 1.2 1.1 2.5l2.6 4.6 7.1 12.1c2.6 4.5 4.7 6.7 6.2 6.7.4 0 1.1-.1 2.1-.3 1-.2 1.7-.4 2.2-.4 3.6 0 5.4 2.2 5.4 6.6 0 2.2-.7 4-2 5.3-1.3 1.3-3.1 2-5.3 2-1.3 0-2.8-.1-4.5-.4-2.6-.4-4.9-.6-7-.6-1.2 0-3 .2-5.3.5-2.4.3-4.2.5-5.4.5-1.7 0-3.2-.5-4.4-1.6a5.18 5.18 0 0 1-1.8-4c0-1.5.9-3.1 2.8-4.6.9-.7 1.3-1.4 1.3-2.2 0-.7-.5-2-1.6-3.9l-5.3-9.2c-1.2-2.1-2-3.2-2.5-3.2-.4 0-.8.2-1.1.5l-1 1-5.9 4.9v6.9c.2 1.4.9 2.1 2 2.1.1 0 .2 0 .5-.1h.6c.2-.1.5-.1.9-.1 2.9 0 4.4 2.1 4.4 6.2 0 2.2-.6 4-1.8 5.3-1.2 1.3-2.8 2-4.9 2-.9 0-2.3-.1-4.1-.4-2.1-.3-3.5-.4-4.2-.5-1-.1-2.2-.1-3.5-.1-1.5 0-3.8.2-6.7.5-2.9.3-5.1.5-6.5.5-2.1 0-3.9-.7-5.2-2-1.3-1.3-2-3.1-2-5.3 0-1.9.5-3.5 1.5-4.7 1-1.2 2.4-1.9 4-1.9.5 0 1.3.1 2.4.4 1 .2 1.8.3 2.3.3 1.8 0 2.7-2.3 2.7-6.8V26.1c0-2.1-.1-3.5-.2-4.1-.3-1.7-1.2-2.6-2.5-2.6-.5 0-1.3.1-2.3.4-1 .2-1.9.3-2.5.3-1.5 0-2.8-.6-3.9-1.9-1-1.3-1.5-2.8-1.5-4.7 0-2.3.7-4.1 2-5.4a7 7 0 0 1 5.2-2c1.5 0 3.7.2 6.8.5 3 .3 5.3.5 7 .5 1.3 0 3.2-.2 5.7-.5s4.4-.5 5.7-.5c2 0 3.6.7 4.8 2 1.2 1.3 1.8 3.1 1.8 5.4 0 4-1.5 6-4.4 6h-.9c-.3-.1-.7-.1-1.2-.1-1.1 0-1.7.7-1.9 2.1.1.1.1 1.3.1 3.6zM709.3 25.8v4.8c5.1-6 10.9-9 17.4-9 6.9 0 11.8 2.6 14.7 7.8 1.5 2.7 2.3 6.9 2.3 12.6v15c0 3.4.7 5.1 2 5.1.3 0 .8-.1 1.5-.3.3-.1.8-.2 1.5-.2 2.9 0 4.4 1.7 4.4 5.2 0 4.6-2 6.9-6 6.9-1.1 0-2.7-.1-4.8-.4-2.1-.3-3.7-.4-4.8-.4-1.7 0-3.4.1-5.3.4-1.9.3-3.4.4-4.6.4-3.9 0-5.9-2-5.9-6.1 0-3.5 1.4-5.4 4.1-5.6 1.8-.1 2.7-1 2.7-2.5v-14c0-3.9-.5-6.6-1.5-8.2-1-1.6-2.7-2.3-5.1-2.3-2.7 0-5 .9-6.8 2.8-1.8 1.9-2.6 4.2-2.6 7.1v10.4c0 3 .1 4.8.4 5.5.3.6 1 1 2.3 1.2 2.4.3 3.6 2.1 3.6 5.4 0 4.2-1.8 6.3-5.3 6.3-1 0-2.2-.1-3.7-.3-2.5-.3-4.3-.5-5.5-.5s-3 .1-5.3.4c-2.4.3-4.2.4-5.4.4-4.2 0-6.3-2.2-6.3-6.7 0-3.7 1.6-5.6 4.8-5.6.5 0 1.1.1 1.8.4.7.2 1.2.3 1.5.3 1.1 0 1.7-1.9 1.7-5.6V40.3c0-3.8-.6-5.7-1.7-5.7-.3 0-.8.1-1.5.4-.8.2-1.3.4-1.8.4-3.2 0-4.8-1.8-4.8-5.5 0-2 .5-3.6 1.7-4.9 1.1-1.3 2.5-1.9 4.3-1.9.5 0 1.7.2 3.4.5 1 .2 1.9.3 2.6.3.8 0 2.2-.1 4.1-.4 1.9-.3 3-.4 3.2-.4 1.8-.1 2.7.8 2.7 2.7zM780 75c-8.3 0-14.6-2.3-19.1-7-4.5-4.7-6.8-11.2-6.8-19.7 0-8.4 2.2-15 6.7-19.6 4.5-4.7 10.7-7.1 18.8-7.1 7.9 0 14.2 2.3 18.8 7 4.6 4.7 6.8 11.1 6.8 19.2 0 8.5-2.2 15.2-6.6 20-4.5 4.8-10.7 7.2-18.6 7.2zm-.4-41.1c-2.9 0-5.2 1.3-7 3.9-1.7 2.6-2.5 6.1-2.5 10.5 0 4.5.8 8.1 2.5 10.6s4.1 3.8 7.2 3.8c6.2 0 9.3-4.8 9.3-14.4s-3.2-14.4-9.5-14.4zM830.3 38.4l4.3 21.4 6.4-29.5c.7-2.9 1.6-4.9 2.9-5.9 1.3-1 3.7-1.4 7.2-1.4 3.9 0 6.5.5 7.8 1.4 1.2 1 2.2 3.3 3 7.1l5.7 28.3 5.3-22.4c.1-.5.2-1 .2-1.4 0-1-.8-1.5-2.4-1.5-3.3-.1-4.9-1.9-4.9-5.6 0-3.9 1.9-5.9 5.7-5.9 1.1 0 2.8.1 5 .4 2.2.3 3.9.4 5 .4s2.7-.1 4.8-.4c2.1-.3 3.7-.4 4.8-.4 1.7 0 3.1.6 4.2 1.7s1.6 2.6 1.6 4.5c0 1.7-.4 3.1-1.3 4.2s-2 1.6-3.3 1.6c-.5 0-.8 0-1-.1-.9-.1-1.4-.2-1.5-.2-.9 0-1.6 1.2-2.3 3.6 0 .1-.3 1-.9 2.8l-8.3 26c-1.3 4.3-3.1 6.4-5.3 6.4-.7 0-1.7-.1-3-.3-1.3-.2-2.3-.3-3-.3-.7 0-1.6.1-2.9.3-1.3.2-2.2.3-2.8.3-2.5 0-4.2-2.6-5.2-7.8l-4.9-26.3-5.9 25.6c-.9 3.8-1.6 6.2-2.2 7.1-.6 1-1.5 1.4-3 1.4-.7 0-1.7-.1-3-.3-1.3-.2-2.4-.3-3.3-.3-.7 0-1.8.1-3.2.3-1.4.2-2.5.3-3.2.3-2.1 0-3.6-1.7-4.5-5.1l-8-30.4c-.5-2.1-1.4-3.1-2.7-3.1-.3 0-.7 0-1.2.1-.6.1-1 .1-1.2.1-2.8 0-4.2-1.9-4.2-5.8 0-4.3 2-6.5 5.9-6.5 1.1 0 2.6.1 4.8.4 2.1.3 3.7.4 4.8.4 1.1 0 2.9-.1 5.2-.4 2.3-.3 4.1-.4 5.2-.4 3.6 0 5.4 2 5.4 6 0 3.4-1.3 5.2-3.9 5.4-1.3.1-2 .3-2.3.4-.3.2-.5.6-.5 1.2V37c-.1.2-.1.7.1 1.4z"/><g opacity=".77" fill="#FFF"><path d="M909.3 26.6v6.5h-6.6V2.5h5.4l.4 2.2h.2c1.8-1.6 4-2.7 6.3-2.7 5.4 0 8.7 4.5 8.7 11.3 0 7.6-4.6 12.1-9.4 12.1-1.9 0-3.7-.9-5.3-2.3l.3 3.5zm3.6-6.6c2.3 0 4.1-2 4.1-6.6 0-4-1.2-6-3.9-6-1.3 0-2.5.6-3.8 2v9.1c1.2 1.1 2.5 1.5 3.6 1.5zM927.2 2.5h5.4l.4 3.9h.2c1.6-3 4-4.5 6.3-4.5 1.3 0 2 .2 2.7.5l-1.1 5.7c-.8-.2-1.5-.4-2.4-.4-1.7 0-3.7 1.1-4.9 4.1v13h-6.6V2.5zM953.2 2c5.6 0 10.8 4.3 10.8 11.7s-5.2 11.7-10.8 11.7c-5.7 0-10.9-4.3-10.9-11.7S947.5 2 953.2 2zm0 18.1c2.7 0 4.1-2.5 4.1-6.3 0-3.9-1.4-6.3-4.1-6.3-2.7 0-4.1 2.5-4.1 6.3s1.4 6.3 4.1 6.3z"/></g></svg>