<svg id="Layer_1" data-name="Layer 1" xmlns="http://www.w3.org/2000/svg" viewBox="0 0 990 95.49"><defs><style>.cls-2,.cls-3{fill:#fff}.cls-2{opacity:.77}</style><filter id="luminosity-noclip" x="5.13" y="40.75" width="82.4" height="28" filterUnits="userSpaceOnUse" color-interpolation-filters="sRGB"><feFlood flood-color="#fff" result="bg"/><feBlend in="SourceGraphic" in2="bg"/></filter><mask id="mask" x="5.13" y="40.75" width="82.4" height="28" maskUnits="userSpaceOnUse"><path d="M5.13 50.61c6.87 0 6.87 9.89 13.73 9.89s6.86-9.89 13.73-9.89 6.87 9.89 13.73 9.89 6.87-9.89 13.73-9.89 6.87 9.89 13.74 9.89 6.87-9.89 13.74-9.89" stroke="#000" filter="url(#luminosity-noclip)" fill="none" stroke-miterlimit="10" stroke-width="4"/></mask></defs><path class="cls-2" d="M112.77 23.41l8.2 42.3 10.3-52q1.29-6.8 6.7-6.8 5.7 0 6.8 6l10 53.5 8.5-41.5a36.3 36.3 0 0 0 .9-6.7q0-4.1-4.2-4.1a24.88 24.88 0 0 0-2.6.2 22.53 22.53 0 0 1-2.6.2c-2.87 0-4.3-1.16-4.3-3.5s1.4-3.4 4.2-3.4a29.18 29.18 0 0 1 3.3.2q8.19 1 10.8 1a43.51 43.51 0 0 0 5.95-.6 43.22 43.22 0 0 1 5.95-.6c2.46 0 3.7 1.2 3.7 3.61q0 3.28-3.6 3.29a9.44 9.44 0 0 1-1.8-.25 10.34 10.34 0 0 0-1.8-.25 3.29 3.29 0 0 0-3 1.6q-1 1.61-2.25 7.2l-11.2 47.7q-1.3 5.51-6.2 5.5-5.21 0-6.5-6.8l-10.1-52.9-11.1 54.3q-1.11 5.4-5.7 5.4t-6-5.5l-11.9-49.8q-.9-3.8-2.25-5.15a5.81 5.81 0 0 0-4.25-1.35H96l-2.2.3c-2.14 0-3.2-1.11-3.2-3.35s1.16-3.55 3.5-3.55a19.74 19.74 0 0 1 3.2.3 63.84 63.84 0 0 0 10.5.9q2.4 0 11-1a22.45 22.45 0 0 1 2.9-.2q3.6 0 3.6 3.3 0 3.6-4.4 3.6a26.18 26.18 0 0 1-2.75-.2c-1.24-.13-2.15-.2-2.75-.2-2.34 0-3.5 1.1-3.5 3.3a15.39 15.39 0 0 0 .3 2.8zM205.67 10.23l-.4 19.48a26.94 26.94 0 0 1 7.32-5.25 19.46 19.46 0 0 1 7.82-1.46q8.63 0 13.84 4.9t5.22 12.9v16.7c0 3.94 0 6.1.1 6.5.26 3.34 1.13 5 2.6 5a7.07 7.07 0 0 0 2.3-.56 7.51 7.51 0 0 1 1.6-.14c2.46 0 3.7 1.14 3.7 3.4s-1.6 3.4-4.8 3.4a34.45 34.45 0 0 1-3.8-.3 61 61 0 0 0-6.8-.5 30.72 30.72 0 0 0-4 .2c-2.8.4-4.54.6-5.2.6a4.39 4.39 0 0 1-3-1 3.37 3.37 0 0 1-1.2-2.65 2.8 2.8 0 0 1 1.05-2.2 3.64 3.64 0 0 1 2.45-.9 8.54 8.54 0 0 1 2.6.5 5.35 5.35 0 0 0 1.7.3c2 0 3-2.16 3.1-6.5 0-.8.06-2.36.2-4.7v-9.7q0-10.2-2-13.7-2.91-5.19-10.24-5.2-7.94 0-11.54 5.4-2.52 3.7-2.61 11.9v7.2a8.81 8.81 0 0 1-.4 2v1.9q0 5.7.1 6.6c.34 3.27 1.34 4.9 3 4.9a8.73 8.73 0 0 0 2.32-.45 8.55 8.55 0 0 1 2.21-.45q3.28 0 3.29 3.2 0 3.6-4.43 3.6-1.41 0-4.23-.3c-2.55-.26-4.74-.4-6.55-.4-1.14 0-2.72.1-4.73.3-2.69.27-4.4.4-5.13.4-2.76 0-4.13-1.23-4.13-3.71q0-3.09 3.87-3.09a5.06 5.06 0 0 1 1.93.28 12.11 12.11 0 0 0 2.45.42c1.08 0 1.81-1 2.18-3.05a90.33 90.33 0 0 0 .67-12.45V35.61q0-15-.6-18.95c-.4-2.63-1.34-3.95-2.8-3.95a11 11 0 0 0-2.1.3 11.29 11.29 0 0 1-2.2.3c-2.27 0-3.4-1.06-3.4-3.2a3 3 0 0 1 1.2-2.4 4.4 4.4 0 0 1 2.9-1c.33 0 1.46.1 3.4.3a37.4 37.4 0 0 0 4.1.2 16.86 16.86 0 0 0 2.5-.25 18 18 0 0 1 2.3-.25c1.53 0 2.3 1.11 2.3 3.32zM294.67 76q-8.21 0-10.1-7.1-5.1 7.5-16 7.5-8.1 0-12.95-4a13.13 13.13 0 0 1-4.85-10.7q0-8.3 7.1-12.2a18.61 18.61 0 0 1 4.65-1.95c1.3-.3 3.91-.68 7.85-1.15q8.4-.9 10.95-2.5t2.55-5.9a7.92 7.92 0 0 0-2.87-6.44c-1.9-1.56-4.55-2.35-7.95-2.35a15.33 15.33 0 0 0-8.4 2.5q-1.5 1-1.5 2.1c0 .27.3.6.9 1a3.9 3.9 0 0 1 1.4 3.4 4.24 4.24 0 0 1-1.45 3.3 5.27 5.27 0 0 1-3.65 1.3A5.8 5.8 0 0 1 256 41a6 6 0 0 1-1.75-4.4q0-5.59 5.55-9.6a22.43 22.43 0 0 1 13.45-4q18.19 0 18.2 17.47v20.16a41.33 41.33 0 0 0 .2 5.69q.6 3.5 3.4 3.49 3.49 0 3.5-6.35v-4.87c0-2.12 1-3.18 3.05-3.18s3.25 1.6 3.25 4.8v6.2Q304.66 76 294.67 76zm-11.1-19.9V49a12.79 12.79 0 0 1-4.63 2.8 45.89 45.89 0 0 1-8.72 1.4q-11.36 1.11-11.35 8.4a7.24 7.24 0 0 0 2.75 6 11.56 11.56 0 0 0 7.45 2.2q6.69 0 10.55-3.65t3.95-10.04zM331.37 60.91v-6.4q.09-4.09 3.6-4.1c2.33 0 3.5 1.54 3.5 4.6q0 10.91-2.79 15.2Q331.92 76 323.27 76q-7.95 0-11.32-5.1-2.49-3.69-2.48-12.6v-24q0-2.1-2-2.1h-3.27a3.71 3.71 0 0 1-2.71-1.05 3.41 3.41 0 0 1-1.07-2.55 3.54 3.54 0 0 1 1-2.5 3.19 3.19 0 0 1 2.35-1.1h3.9c1.13 0 1.7-.63 1.7-1.9V12.81q0-3.8 3.9-3.8 3.6 0 3.6 3.8v10.7q0 1.5 1.8 1.5h10.9q3.79 0 3.8 3.5 0 3.71-4.1 3.7h-11c-.94 0-1.4.7-1.4 2.1v24.6q0 10.5 7 10.5t7.5-8.5zM354.23 21.31q0-7.5-5.11-7.5a13.48 13.48 0 0 0-2.1.2 17.82 17.82 0 0 1-2.69.3c-2.07 0-3.1-1.06-3.1-3.2q0-3.49 4.5-3.5a12.41 12.41 0 0 1 1.29.1l5.31.7a47.88 47.88 0 0 0 6.4.4 52.67 52.67 0 0 0 5.6-.3l6.5-.7c1.26-.13 2.93-.2 5-.2q9.09 0 15.19 2.6A25.92 25.92 0 0 1 403.68 22a39.72 39.72 0 0 1 4.65 19.5 40.82 40.82 0 0 1-3.71 17.65 25.13 25.13 0 0 1-10.1 11.55q-7.69 4.5-18.59 4.5c-1.47 0-3-.06-4.5-.2l-6.91-.6q-3.5-.3-7.29-.3a39.42 39.42 0 0 0-5.4.3l-4.81.7a5 5 0 0 0-.69.1h-.81c-2.86 0-4.29-1.16-4.29-3.5a3.29 3.29 0 0 1 .89-2.35 3 3 0 0 1 2.21-1 15 15 0 0 1 2.69.3 7.94 7.94 0 0 0 2.1.2q5.1 0 5.11-7.5zm8.39-1v42.12a5.18 5.18 0 0 0 4.5 5.58 48.19 48.19 0 0 0 8.4.4q12 0 17.41-6.47 6.49-7.77 6.5-20.53 0-10-3.95-16.88a18.05 18.05 0 0 0-10.86-8.92 38 38 0 0 0-10.6-1.3c-5.26 0-8.48.3-9.64.9s-1.76 2.29-1.76 5.08zM435.42 76.41q-10.5 0-16.8-7.25t-6.3-19.45q0-12.19 6.35-19.45T435.73 23q10.89 0 17.19 7.1t6.31 19.3q0 12.21-6.5 19.6t-17.31 7.41zm.5-46.8a13.46 13.46 0 0 0-11 4.9q-4 4.91-4.4 13.9v1.3q0 9.4 4 14.75a12.92 12.92 0 0 0 11 5.35A13.7 13.7 0 0 0 447 64.46q4.14-5.34 4.14-14.85-.02-19.99-15.22-20zM494.22 61.51q0 7.5 5.1 7.5a16.4 16.4 0 0 0 2.4-.25 18.27 18.27 0 0 1 2.4-.25 3.24 3.24 0 0 1 3.2 3.2c0 2.34-1.5 3.5-4.5 3.5h-.6a4.91 4.91 0 0 0-.7-.1l-4.9-.7a45.74 45.74 0 0 0-6.3-.4 50.8 50.8 0 0 0-6.7.4l-5 .7a3.35 3.35 0 0 0-.7.1h-.7c-2.93 0-4.4-1.16-4.4-3.5q0-3.19 3.2-3.2a18 18 0 0 1 2.4.25 16.67 16.67 0 0 0 2.4.25q5 0 5-7.5v-40.6q0-7.1-7.3-7.1h-3.1q-7.2 0-7.2 7c0 1.67 0 2.8.1 3.4l.4 3.7a23.2 23.2 0 0 1 .1 2.5q0 6.3-3.9 6.3c-2.46 0-3.7-1.53-3.7-4.6 0-.86.07-2.36.2-4.5q.3-4.8.3-6.1c0-1.66-.05-3.4-.16-5.2q-.35-5.29-.34-4.5 0-4.2 3.8-4.2 1.39 0 6.49.3c.33 0 3.06.14 8.18.4h11.38q2 0 10.69-.17 1.89 0 6.48-.26 4.1-.27 6.39-.27 5 0 5 4.1v.2c0 .67-.08 1.9-.25 3.7s-.35 3.74-.55 5.8v1.1c0 1 .1 2.57.3 4.7.27 2.8.4 4.54.4 5.2 0 2.74-1.3 4.1-3.9 4.1s-3.8-1.67-3.8-5q0-1.8.3-5.37c.2-2.38.3-4.17.3-5.38q0-6.93-7.9-6.93h-2.8q-3.69 0-5.3 1.55c-1.06 1-1.66 2.75-1.8 5.15l-.4 7zM542.27 10.23l-.4 19.48a27.25 27.25 0 0 1 7.32-5.25A19.54 19.54 0 0 1 557 23q8.63 0 13.84 4.9t5.21 12.9v16.7c0 3.94 0 6.1.1 6.5.27 3.34 1.14 5 2.6 5a7 7 0 0 0 2.3-.56 7.51 7.51 0 0 1 1.6-.14c2.47 0 3.7 1.14 3.7 3.4s-1.6 3.4-4.8 3.4a34.8 34.8 0 0 1-3.8-.3 60.82 60.82 0 0 0-6.8-.5 30.94 30.94 0 0 0-4 .2c-2.8.4-4.53.6-5.2.6a4.39 4.39 0 0 1-3-1 3.37 3.37 0 0 1-1.2-2.65 2.8 2.8 0 0 1 1-2.2 3.65 3.65 0 0 1 2.45-.9 8.48 8.48 0 0 1 2.6.5 5.4 5.4 0 0 0 1.7.3c2 0 3-2.16 3.1-6.5 0-.8.07-2.36.2-4.7v-9.7q0-10.2-2-13.7-2.92-5.19-10.24-5.2-7.93 0-11.55 5.4-2.5 3.7-2.61 11.9v7.2a8.27 8.27 0 0 1-.4 2v1.9q0 5.7.11 6.6.51 4.91 3 4.9a8.68 8.68 0 0 0 2.31-.45 8.55 8.55 0 0 1 2.21-.45c2.2 0 3.29 1.07 3.29 3.2 0 2.4-1.47 3.6-4.43 3.6q-1.41 0-4.23-.3c-2.55-.26-4.73-.4-6.54-.4-1.14 0-2.72.1-4.73.3-2.69.27-4.4.4-5.14.4-2.75 0-4.13-1.23-4.13-3.71q0-3.09 3.87-3.09a5.12 5.12 0 0 1 1.94.28 12.16 12.16 0 0 0 2.44.42c1.09 0 1.82-1 2.19-3.05a92.62 92.62 0 0 0 .66-12.45V35.61q0-15-.6-18.95t-2.8-3.95a11.19 11.19 0 0 0-2.1.3 11.1 11.1 0 0 1-2.2.3c-2.26 0-3.4-1.06-3.4-3.2a3 3 0 0 1 1.2-2.4 4.42 4.42 0 0 1 2.9-1c.34 0 1.47.1 3.4.3a37.66 37.66 0 0 0 4.1.2 16.74 16.74 0 0 0 2.5-.25 18.39 18.39 0 0 1 2.3-.25c1.53 0 2.3 1.11 2.3 3.32zM631.17 45.31c0 2.54-.17 4.09-.5 4.65s-1.3.85-2.9.85H596a2.81 2.81 0 0 0-1.7.35 1.46 1.46 0 0 0-.4 1.15 18 18 0 0 0 4.5 12.5 14.91 14.91 0 0 0 19.25 2.6 11 11 0 0 0 4.75-6.1l.9-2.9a3.11 3.11 0 0 1 3.3-2.4q3.7 0 3.7 3.8 0 6.51-6.6 11.55a24 24 0 0 1-15 5q-10.5 0-16.7-7t-6.2-19q0-12.19 6.6-19.8a21.72 21.72 0 0 1 17.2-7.6 20.65 20.65 0 0 1 15.5 6.3q6.07 6.35 6.07 16.05zm-36.3-2.6c0 .94.73 1.4 2.2 1.4H621c1.4 0 2.1-.46 2.1-1.4a12.42 12.42 0 0 0-4-9.2 13 13 0 0 0-9.4-3.9 15.09 15.09 0 0 0-10.2 4q-4.62 4.1-4.63 9.1zM652.86 34.31l11.5 33.8 12.2-33.3a7.09 7.09 0 0 0 .5-2.2c0-1.13-.77-1.7-2.3-1.7a7.34 7.34 0 0 0-1.9.2 19.92 19.92 0 0 1-2.1.2c-2.2 0-3.3-1.06-3.3-3.2s1.43-3.4 4.3-3.4a16.88 16.88 0 0 1 2 .2l3.6.5a20.23 20.23 0 0 0 3 .2 40.19 40.19 0 0 0 5-.45 40.34 40.34 0 0 1 5-.45q4.3 0 4.3 3.35t-3.3 3.25a4.16 4.16 0 0 1-1.5-.2 9.57 9.57 0 0 0-1.8-.3c-1.27 0-2.56 1.7-3.9 5.1l-13.6 34q-4.5 11.31-8.5 16.4-6.79 8.7-17 8.7a16.64 16.64 0 0 1-10.25-3.1c-2.76-2.06-4.15-4.56-4.15-7.5a7.16 7.16 0 0 1 1.8-5 6.1 6.1 0 0 1 4.7-2 5.45 5.45 0 0 1 3.8 1.35 4.33 4.33 0 0 1 1.5 3.35 3.86 3.86 0 0 1-2.9 4.1q1.5 2.21 5.7 2.2a13.65 13.65 0 0 0 9.55-4q4.25-3.94 4.25-8.85 0-2.49-2.7-9.3l-11-27.8-1.2-3.2q-1.7-4.5-3.9-4.5a17.24 17.24 0 0 0-2.15.25 15.8 15.8 0 0 1-2.05.25c-2.33 0-3.5-1.06-3.5-3.2s1.53-3.4 4.6-3.4a16.57 16.57 0 0 1 2.3.12l4 .58h.8a8.26 8.26 0 0 0 1.2.1 68.42 68.42 0 0 0 7.7-.46c2.07-.22 3.43-.34 4.1-.34q4.2 0 4.2 3.3c0 2.2-1.26 3.3-3.8 3.3a13 13 0 0 1-1.9-.2 14.67 14.67 0 0 0-1.9-.2 1.24 1.24 0 0 0-1.4 1.4 6.44 6.44 0 0 0 .4 2.05z"/><path class="cls-3" d="M723.56 26.51v10.8l14.5-13.4c2.34-2.13 3.5-3.7 3.5-4.7a1.63 1.63 0 0 0-.4-1.2 6.39 6.39 0 0 0-1.3-.9 4.38 4.38 0 0 1-1.9-3.7 5.36 5.36 0 0 1 1.8-4.2 6.85 6.85 0 0 1 4.7-1.6 45 45 0 0 1 5.55.5 43.35 43.35 0 0 0 5.55.5 38.52 38.52 0 0 0 5.8-.6 28.7 28.7 0 0 1 4.3-.4 7.33 7.33 0 0 1 5.25 1.85 6.64 6.64 0 0 1 2 5 7.9 7.9 0 0 1-1.55 5 4.49 4.49 0 0 1-3.65 2.05 7.58 7.58 0 0 1-1.95-.35 7.89 7.89 0 0 0-2-.35c-.8 0-1.93.57-3.4 1.7l-1.8 1.4-9.7 8.5q-3 2.61-3 3.7a7.12 7.12 0 0 0 1.1 2.5l2.6 4.6 7.1 12.1q3.9 6.7 6.2 6.7a9.7 9.7 0 0 0 2-.35 10.6 10.6 0 0 1 2.25-.35q5.4 0 5.4 6.6a6.88 6.88 0 0 1-7.3 7.3 29.88 29.88 0 0 1-4.5-.4 46.47 46.47 0 0 0-7-.6 42.63 42.63 0 0 0-5.35.5 40.64 40.64 0 0 1-5.35.5 6.38 6.38 0 0 1-4.4-1.6 5.12 5.12 0 0 1-1.8-4c0-1.53.94-3.06 2.8-4.6a2.79 2.79 0 0 0 1.3-2.2 10 10 0 0 0-1.6-3.9l-5.3-9.2c-1.2-2.13-2-3.2-2.5-3.2a1.55 1.55 0 0 0-1.1.5l-1 1-5.9 4.9v6.9c.2 1.4.87 2.1 2 2.1a2.53 2.53 0 0 0 .5-.1h.6a3.28 3.28 0 0 1 .9-.1c2.94 0 4.4 2.07 4.4 6.2a7.62 7.62 0 0 1-1.8 5.3 6.23 6.23 0 0 1-4.9 2 29.93 29.93 0 0 1-4.1-.4c-2.06-.26-3.46-.43-4.2-.5-1-.06-2.16-.1-3.5-.1a63.93 63.93 0 0 0-6.65.5 60.82 60.82 0 0 1-6.55.5 7 7 0 0 1-5.2-2 8 8 0 0 1-.45-10 5 5 0 0 1 3.95-1.85 11.82 11.82 0 0 1 2.35.35 11.29 11.29 0 0 0 2.35.35c1.8 0 2.7-2.26 2.7-6.8V27.51a24.22 24.22 0 0 0-.2-4.1c-.33-1.73-1.16-2.6-2.5-2.6a12 12 0 0 0-2.35.35 11.36 11.36 0 0 1-2.45.35 4.78 4.78 0 0 1-3.85-1.9 7.19 7.19 0 0 1-1.55-4.7 7.24 7.24 0 0 1 2-5.35 7.09 7.09 0 0 1 5.25-1.95q2.21 0 6.75.5a67 67 0 0 0 7 .5 46.43 46.43 0 0 0 5.7-.5 48.89 48.89 0 0 1 5.7-.5 6.15 6.15 0 0 1 4.8 2A7.79 7.79 0 0 1 732 15c0 4-1.46 6-4.4 6h-.9a5.67 5.67 0 0 0-1.2-.1c-1.06 0-1.7.7-1.9 2.1zM799.06 27.21V32q7.7-9 17.4-9 10.39 0 14.7 7.8 2.3 4 2.3 12.6v15q0 5.1 2 5.1a5.85 5.85 0 0 0 1.5-.3 4.32 4.32 0 0 1 1.5-.2c2.93 0 4.4 1.74 4.4 5.2q0 6.9-6 6.9a41.55 41.55 0 0 1-4.8-.4 44 44 0 0 0-4.8-.4 38.57 38.57 0 0 0-5.3.4 33.31 33.31 0 0 1-4.6.4q-5.9 0-5.9-6.1 0-5.3 4.1-5.6c1.8-.13 2.7-1 2.7-2.5v-14q0-5.79-1.5-8.15c-1-1.56-2.7-2.35-5.1-2.35a8.92 8.92 0 0 0-6.75 2.8 9.92 9.92 0 0 0-2.65 7.1v10.4c0 3 .13 4.82.4 5.45s1 1.05 2.3 1.25q3.6.51 3.6 5.4 0 6.3-5.3 6.3a28.22 28.22 0 0 1-3.7-.3 46.15 46.15 0 0 0-5.5-.5c-1.2 0-3 .14-5.35.4a51.3 51.3 0 0 1-5.35.4q-6.3 0-6.3-6.7 0-5.59 4.8-5.6a5.64 5.64 0 0 1 1.8.35 4.91 4.91 0 0 0 1.5.35c1.13 0 1.7-1.86 1.7-5.6V41.71q0-5.7-1.7-5.7a6.92 6.92 0 0 0-1.55.35 6.36 6.36 0 0 1-1.75.35q-4.8 0-4.8-5.5a7.21 7.21 0 0 1 1.65-4.9 5.5 5.5 0 0 1 4.35-1.9 24.07 24.07 0 0 1 3.4.5 13.55 13.55 0 0 0 2.6.3 34 34 0 0 0 4.1-.4c1.93-.26 3-.4 3.2-.4 1.8 0 2.7.94 2.7 2.8zM869.7 76.41q-12.41 0-19.15-7t-6.75-19.7q0-12.6 6.7-19.65t18.8-7q11.9 0 18.75 7t6.85 19.2q0 12.81-6.65 20t-18.55 7.15zm-.4-41.1a8 8 0 0 0-6.95 3.85Q859.8 43 859.8 49.71t2.55 10.6a8.11 8.11 0 0 0 7.15 3.8q9.3 0 9.3-14.4t-9.5-14.4zM920 39.81l4.3 21.4 6.4-29.5q1-4.39 2.95-5.85c1.3-1 3.68-1.45 7.15-1.45 3.93 0 6.52.49 7.75 1.45s2.22 3.32 3 7l5.7 28.3 5.3-22.4a6 6 0 0 0 .2-1.4q0-1.5-2.4-1.5-4.9-.09-4.9-5.6 0-5.89 5.7-5.9a47 47 0 0 1 5 .4 44.45 44.45 0 0 0 5 .4 41.55 41.55 0 0 0 4.8-.4 44 44 0 0 1 4.8-.4 5.52 5.52 0 0 1 4.2 1.7 6.31 6.31 0 0 1 1.6 4.5 6.63 6.63 0 0 1-1.3 4.25 4 4 0 0 1-3.3 1.65 3.37 3.37 0 0 1-1-.1l-1.5-.2c-.87 0-1.63 1.2-2.3 3.6 0 .07-.3 1-.9 2.8l-8.3 26q-2 6.4-5.3 6.4a22.11 22.11 0 0 1-3-.3 22.11 22.11 0 0 0-3-.3 20.16 20.16 0 0 0-2.9.3 20.06 20.06 0 0 1-2.8.3q-3.71 0-5.2-7.8l-4.9-26.3L935 66.41c-.87 3.8-1.58 6.19-2.15 7.15a3.13 3.13 0 0 1-3 1.45 20.48 20.48 0 0 1-3-.3 21.62 21.62 0 0 0-3.3-.3 24.59 24.59 0 0 0-3.2.3 24.59 24.59 0 0 1-3.2.3q-3.11 0-4.5-5.1l-8-30.4c-.47-2.06-1.37-3.1-2.7-3.1a8 8 0 0 0-1.25.15 8 8 0 0 1-1.25.15q-4.2 0-4.2-5.8 0-6.5 5.9-6.5a42.71 42.71 0 0 1 4.75.4 40.38 40.38 0 0 0 4.75.4 49.64 49.64 0 0 0 5.2-.4c2.33-.26 4.07-.4 5.2-.4q5.4 0 5.4 6 0 5.1-3.9 5.4a8.65 8.65 0 0 0-2.35.45c-.3.17-.45.59-.45 1.25v.9a8.66 8.66 0 0 0 .25 1.4z"/><g mask="url(#mask)"><path class="cls-3" d="M9.58 40.75H81A4.29 4.29 0 0 1 85.29 45v23.75h-80V45a4.29 4.29 0 0 1 4.29-4.25z"/></g><path class="cls-3" d="M50.72 13.36a6 6 0 0 1-12 0c0-3.32 6-12.6 6-12.6s6 9.24 6 12.6z"/><path stroke="#fff" stroke-linecap="round" fill="none" stroke-miterlimit="10" stroke-width="4" d="M88.5 75.25h-86"/><path class="cls-3" d="M43 23.75h4v18h-4z"/></svg>