<svg width="1174" height="114" viewBox="0 0 1174 114" fill="none" xmlns="http://www.w3.org/2000/svg">
<path d="M28.416 21.3761L38.912 75.5201L52.096 8.9601C53.2053 3.15744 56.064 0.256104 60.672 0.256104C65.536 0.256104 68.4373 2.8161 69.376 7.9361L82.176 76.4161L93.056 23.2961C93.824 19.5414 94.208 16.6828 94.208 14.7201C94.208 11.2214 92.416 9.4721 88.832 9.4721C88.064 9.4721 86.9547 9.51477 85.504 9.6001C84.0533 9.68544 82.944 9.7281 82.176 9.7281C78.5067 9.7281 76.672 8.27744 76.672 5.3761C76.672 2.5601 78.464 1.1521 82.048 1.1521C83.4133 1.1521 84.8213 1.23744 86.272 1.4081C93.2693 2.26144 97.8773 2.6881 100.096 2.6881C101.803 2.6881 104.341 2.4321 107.712 1.9201C111.083 1.4081 113.621 1.1521 115.328 1.1521C118.485 1.1521 120.064 2.64544 120.064 5.6321C120.064 8.36277 118.528 9.7281 115.456 9.7281C114.944 9.7281 114.176 9.6641 113.152 9.5361C112.128 9.4081 111.36 9.3441 110.848 9.3441C109.056 9.3441 107.755 10.0268 106.944 11.3921C106.133 12.7574 105.173 15.8294 104.064 20.6081L89.728 81.6641C88.6187 86.3574 85.9733 88.7041 81.792 88.7041C77.3547 88.7041 74.5813 85.8028 73.472 80.0001L60.544 12.2881L46.336 81.7921C45.3973 86.4001 42.9653 88.7041 39.04 88.7041C35.0293 88.7041 32.4693 86.3574 31.36 81.6641L16.128 17.9201C15.36 14.6774 14.4 12.4801 13.248 11.3281C12.096 10.1761 10.2827 9.6001 7.808 9.6001H6.912L4.096 9.8561C1.36533 9.8561 0 8.4481 0 5.6321C0 2.64544 1.49333 1.1521 4.48 1.1521C5.67467 1.1521 7.04 1.2801 8.576 1.5361C13.184 2.3041 17.664 2.6881 22.016 2.6881C24.064 2.6881 28.7573 2.26144 36.096 1.4081C37.376 1.23744 38.6133 1.1521 39.808 1.1521C42.88 1.1521 44.416 2.5601 44.416 5.3761C44.416 8.4481 42.5387 9.9841 38.784 9.9841C38.016 9.9841 36.8427 9.89877 35.264 9.7281C33.6853 9.55744 32.512 9.4721 31.744 9.4721C28.7573 9.4721 27.264 10.8801 27.264 13.6961C27.264 14.7201 27.392 15.9148 27.648 17.2801L28.416 21.3761Z" fill="#333333" fill-opacity="0.66"/>
<path d="M144.512 4.608L144 29.44C147.414 26.1973 150.528 23.9573 153.344 22.72C156.16 21.4827 159.488 20.864 163.328 20.864C170.667 20.864 176.555 22.9547 180.992 27.136C185.43 31.3173 187.648 36.8213 187.648 43.648V65.024C187.648 70.0587 187.691 72.832 187.776 73.344C188.118 77.6107 189.227 79.744 191.104 79.744C191.787 79.744 192.768 79.5733 194.048 79.232C194.56 79.1467 195.243 79.104 196.096 79.104C199.254 79.104 200.832 80.512 200.832 83.328C200.832 86.144 198.784 87.552 194.688 87.552C193.579 87.552 191.958 87.424 189.824 87.168C186.24 86.7413 183.339 86.528 181.12 86.528C178.902 86.528 177.195 86.6133 176 86.784C172.416 87.296 170.198 87.552 169.344 87.552C167.808 87.552 166.528 87.104 165.504 86.208C164.48 85.312 163.968 84.1813 163.968 82.816C163.968 81.7067 164.416 80.768 165.312 80C166.208 79.232 167.254 78.848 168.448 78.848C169.387 78.848 170.496 79.0613 171.776 79.488C172.544 79.744 173.27 79.872 173.952 79.872C176.512 79.872 177.835 77.0987 177.92 71.552C177.92 70.528 177.963 68.5227 178.048 65.536L178.176 60.032V53.12C178.176 44.416 177.323 38.5707 175.616 35.584C173.142 31.1467 168.79 28.928 162.56 28.928C155.819 28.928 150.912 31.232 147.84 35.84C145.707 38.9973 144.598 44.0747 144.512 51.072L144.384 60.288C144.384 60.8 144.342 61.6533 144.256 62.848C144.256 63.9573 144.256 64.768 144.256 65.28C144.256 70.144 144.299 72.96 144.384 73.728C144.811 77.9093 146.048 80 148.096 80C148.779 80 149.739 79.8507 150.976 79.552C152.214 79.2533 153.131 79.104 153.728 79.104C156.459 79.104 157.824 80.4267 157.824 83.072C157.824 86.0587 155.947 87.552 152.192 87.552C150.998 87.552 149.206 87.424 146.816 87.168C143.574 86.8267 140.8 86.656 138.496 86.656C137.046 86.656 135.04 86.784 132.48 87.04C129.067 87.3813 126.891 87.552 125.952 87.552C122.454 87.552 120.704 86.016 120.704 82.944C120.704 80.384 122.326 79.104 125.568 79.104C126.678 79.104 127.488 79.1893 128 79.36C129.451 79.616 130.475 79.744 131.072 79.744C132.438 79.744 133.355 78.4427 133.824 75.84C134.294 73.2373 134.571 67.9253 134.656 59.904L134.784 36.992C134.784 24.192 134.528 16.1067 134.016 12.736C133.504 9.36533 132.31 7.68 130.432 7.68C129.835 7.68 128.939 7.808 127.744 8.064C126.55 8.32 125.611 8.448 124.928 8.448C122.027 8.448 120.576 7.08267 120.576 4.352C120.576 3.15733 121.088 2.13333 122.112 1.28C123.136 0.426667 124.374 0 125.824 0C126.251 0 127.702 0.128 130.176 0.384C131.798 0.554667 133.547 0.64 135.424 0.64C136.192 0.64 137.259 0.554667 138.624 0.384C139.99 0.213333 140.971 0.128 141.568 0.128C143.531 0.128 144.512 1.536 144.512 4.352V4.608Z" fill="#333333" fill-opacity="0.66"/>
<path d="M260.992 88.704C253.994 88.704 249.685 85.6747 248.064 79.616C243.712 86.016 236.885 89.216 227.584 89.216C220.672 89.216 215.146 87.5093 211.008 84.096C206.869 80.6827 204.8 76.1174 204.8 70.4C204.8 63.3173 207.829 58.112 213.888 54.784C216.192 53.504 218.176 52.672 219.84 52.288C221.504 51.904 224.853 51.4133 229.888 50.816C237.056 50.048 241.728 48.9813 243.904 47.616C246.08 46.2507 247.168 43.7333 247.168 40.064C247.168 36.5653 245.952 33.8133 243.52 31.808C241.088 29.8027 237.696 28.8 233.344 28.8C229.504 28.8 225.92 29.8667 222.592 32C221.312 32.8533 220.672 33.7493 220.672 34.688C220.672 35.0293 221.056 35.456 221.824 35.968C223.018 36.8213 223.616 38.272 223.616 40.32C223.616 42.0267 222.997 43.4347 221.76 44.544C220.522 45.6533 218.965 46.208 217.088 46.208C214.869 46.208 213.013 45.44 211.52 43.904C210.026 42.368 209.28 40.4907 209.28 38.272C209.28 33.4933 211.648 29.3973 216.384 25.984C221.12 22.5707 226.858 20.864 233.6 20.864C249.13 20.864 256.896 28.3307 256.896 43.264V69.12C256.896 73.216 256.981 75.648 257.152 76.416C257.664 79.4027 259.114 80.896 261.504 80.896C264.49 80.896 265.984 78.1654 265.984 72.704V66.432C265.984 63.7013 267.306 62.336 269.952 62.336C272.768 62.336 274.176 64.384 274.176 68.48V69.12L274.048 76.416C273.877 84.608 269.525 88.704 260.992 88.704ZM246.784 63.232L246.912 54.144C245.034 55.8507 243.05 57.0453 240.96 57.728C238.869 58.4107 235.136 59.008 229.76 59.52C220.032 60.4587 215.168 64.0427 215.168 70.272C215.168 73.5147 216.341 76.0747 218.688 77.952C221.034 79.8294 224.213 80.768 228.224 80.768C233.941 80.768 238.442 79.2107 241.728 76.096C245.013 72.9813 246.698 68.6933 246.784 63.232Z" fill="#333333" fill-opacity="0.66"/>
<path d="M313.344 69.3761L313.6 61.1841C313.685 57.6854 315.221 55.9361 318.208 55.9361C321.195 55.9361 322.688 57.8988 322.688 61.8241C322.688 71.1254 321.493 77.6108 319.104 81.2801C315.861 86.2294 310.528 88.7041 303.104 88.7041C296.277 88.7041 291.413 86.5281 288.512 82.1761C286.379 79.0188 285.312 73.6428 285.312 66.0481V35.3281C285.312 33.5361 284.501 32.6401 282.88 32.6401H278.784C277.419 32.6401 276.288 32.1921 275.392 31.2961C274.496 30.4001 274.048 29.3121 274.048 28.0321C274.048 26.8374 274.496 25.7708 275.392 24.8321C276.288 23.8934 277.291 23.4241 278.4 23.4241H283.392C284.843 23.4241 285.568 22.6134 285.568 20.9921V7.80809C285.568 4.56543 287.232 2.94409 290.56 2.94409C293.632 2.94409 295.168 4.56543 295.168 7.80809V21.5041C295.168 22.7841 295.936 23.4241 297.472 23.4241H311.424C314.667 23.4241 316.288 24.9174 316.288 27.9041C316.288 31.0614 314.539 32.6401 311.04 32.6401H296.96C295.765 32.6401 295.168 33.5361 295.168 35.3281V66.8161C295.168 75.7761 298.112 80.2561 304 80.2561C309.973 80.2561 313.088 76.6294 313.344 69.3761Z" fill="#333333" fill-opacity="0.66"/>
<path d="M343.424 18.6881C343.424 12.2881 341.248 9.0881 336.896 9.0881C336.128 9.0881 335.232 9.17343 334.208 9.3441C332.672 9.6001 331.52 9.7281 330.752 9.7281C328.107 9.7281 326.784 8.36277 326.784 5.6321C326.784 2.64543 328.704 1.1521 332.544 1.1521C332.971 1.1521 333.526 1.19477 334.208 1.2801L340.992 2.1761C343.552 2.51743 346.283 2.6881 349.184 2.6881C351.574 2.6881 353.963 2.5601 356.352 2.3041L364.672 1.4081C366.294 1.23743 368.427 1.1521 371.072 1.1521C378.838 1.1521 385.323 2.26143 390.528 4.4801C397.355 7.38143 402.752 12.4161 406.72 19.5841C410.688 26.7521 412.672 35.0721 412.672 44.5441C412.672 52.9068 411.094 60.4374 407.936 67.1361C404.779 73.8348 400.47 78.7628 395.008 81.9201C388.438 85.7601 380.502 87.6801 371.2 87.6801C369.323 87.6801 367.403 87.5948 365.44 87.4241L356.608 86.6561C353.622 86.4001 350.507 86.2721 347.264 86.2721C344.448 86.2721 342.144 86.4001 340.352 86.6561L334.208 87.5521C334.038 87.5521 333.739 87.5948 333.312 87.6801C332.886 87.6801 332.544 87.6801 332.288 87.6801C328.619 87.6801 326.784 86.1868 326.784 83.2001C326.784 82.0054 327.168 81.0028 327.936 80.1921C328.704 79.3814 329.643 78.9761 330.752 78.9761C331.691 78.9761 332.843 79.1041 334.208 79.3601C334.806 79.5308 335.702 79.6161 336.896 79.6161C341.248 79.6161 343.424 76.4161 343.424 70.0161V18.6881ZM354.176 17.4081V71.5521C354.176 75.4774 356.096 77.8668 359.936 78.7201C361.216 79.0614 364.8 79.2321 370.688 79.2321C380.928 79.2321 388.352 76.4588 392.96 70.9121C398.507 64.2561 401.28 55.4668 401.28 44.5441C401.28 36.0108 399.595 28.7788 396.224 22.8481C392.854 16.9174 388.224 13.0988 382.336 11.3921C378.582 10.2828 374.059 9.7281 368.768 9.7281C362.027 9.7281 357.91 10.1121 356.416 10.8801C354.923 11.6481 354.176 13.8241 354.176 17.4081Z" fill="#333333" fill-opacity="0.66"/>
<path d="M451.968 89.216C443.008 89.216 435.84 86.1227 430.464 79.936C425.088 73.7493 422.4 65.4507 422.4 55.04C422.4 44.6293 425.109 36.3307 430.528 30.144C435.947 23.9573 443.221 20.864 452.352 20.864C461.653 20.864 468.992 23.8933 474.368 29.952C479.744 36.0107 482.432 44.2453 482.432 54.656C482.432 65.0667 479.659 73.4294 474.112 79.744C468.565 86.0587 461.184 89.216 451.968 89.216ZM452.608 29.312C446.635 29.312 441.941 31.4027 438.528 35.584C435.115 39.7653 433.237 45.696 432.896 53.376C432.896 53.376 432.896 53.9307 432.896 55.04C432.896 63.0613 434.581 69.3547 437.952 73.92C441.323 78.4853 446.037 80.768 452.096 80.768C458.325 80.768 463.211 78.4853 466.752 73.92C470.293 69.3547 472.064 63.0187 472.064 54.912C472.064 37.8453 465.579 29.312 452.608 29.312Z" fill="#333333" fill-opacity="0.66"/>
<path d="M533.12 70.1439C533.12 76.5439 535.296 79.7439 539.648 79.7439C540.331 79.7439 541.355 79.6373 542.72 79.4239C544.085 79.2106 545.109 79.1039 545.792 79.1039C546.901 79.1039 547.861 79.5093 548.672 80.3199C549.483 81.1306 549.888 82.0906 549.888 83.1999C549.888 86.1866 547.968 87.6799 544.128 87.6799C543.957 87.6799 543.701 87.6799 543.36 87.6799C542.933 87.5946 542.635 87.5519 542.464 87.5519L536.192 86.6559C533.803 86.3146 531.115 86.1439 528.128 86.1439C524.885 86.1439 522.027 86.3146 519.552 86.6559L513.152 87.5519C512.896 87.5519 512.597 87.5946 512.256 87.6799C511.829 87.6799 511.531 87.6799 511.36 87.6799C507.605 87.6799 505.728 86.1866 505.728 83.1999C505.728 80.4693 507.093 79.1039 509.824 79.1039C510.507 79.1039 511.531 79.2106 512.896 79.4239C514.261 79.6373 515.285 79.7439 515.968 79.7439C520.235 79.7439 522.368 76.5439 522.368 70.1439V61.1839L522.496 49.9199V39.0399L522.368 18.1759C522.368 12.1173 519.253 9.08793 513.024 9.08793H509.056C502.912 9.08793 499.84 12.0746 499.84 18.0479C499.84 20.1813 499.883 21.6319 499.968 22.3999L500.48 27.1359C500.565 27.9039 500.608 28.9706 500.608 30.3359C500.608 35.7119 498.944 38.3999 495.616 38.3999C492.459 38.3999 490.88 36.4373 490.88 32.5119C490.88 31.4026 490.965 29.4826 491.136 26.7519C491.392 22.6559 491.52 20.0533 491.52 18.9439C491.52 16.8106 491.435 14.5919 491.264 12.2879C490.923 7.76526 490.752 5.84526 490.752 6.52793C490.752 2.94393 492.373 1.15193 495.616 1.15193C496.811 1.15193 499.584 1.27993 503.936 1.53593C504.363 1.53593 507.861 1.62126 514.432 1.79193L529.024 2.04793C530.731 2.04793 535.296 1.96259 542.72 1.79193C544.341 1.79193 547.115 1.66393 551.04 1.40793C554.539 1.15193 557.269 1.02393 559.232 1.02393C563.499 1.02393 565.632 2.77326 565.632 6.27193V6.52793C565.632 7.38126 565.525 8.95993 565.312 11.2639C565.099 13.5679 564.864 16.0426 564.608 18.6879V20.0959C564.608 21.3759 564.736 23.3813 564.992 26.1119C565.333 29.6959 565.504 31.9146 565.504 32.7679C565.504 36.2666 563.84 38.0159 560.512 38.0159C557.269 38.0159 555.648 35.8826 555.648 31.6159C555.648 30.0799 555.776 27.7973 556.032 24.7679C556.288 21.7386 556.416 19.4559 556.416 17.9199C556.416 12.0319 553.045 9.08793 546.304 9.08793H542.72C539.563 9.08793 537.301 9.74926 535.936 11.0719C534.571 12.3946 533.803 14.5919 533.632 17.6639L533.248 26.6239L533.12 70.1439Z" fill="#333333" fill-opacity="0.66"/>
<path d="M594.048 4.608L593.536 29.44C596.95 26.1973 600.064 23.9573 602.88 22.72C605.696 21.4827 609.024 20.864 612.864 20.864C620.203 20.864 626.091 22.9547 630.528 27.136C634.966 31.3173 637.184 36.8213 637.184 43.648V65.024C637.184 70.0587 637.227 72.832 637.312 73.344C637.654 77.6107 638.763 79.744 640.64 79.744C641.323 79.744 642.304 79.5733 643.584 79.232C644.096 79.1467 644.779 79.104 645.632 79.104C648.79 79.104 650.368 80.512 650.368 83.328C650.368 86.144 648.32 87.552 644.224 87.552C643.115 87.552 641.494 87.424 639.36 87.168C635.776 86.7413 632.875 86.528 630.656 86.528C628.438 86.528 626.731 86.6133 625.536 86.784C621.952 87.296 619.734 87.552 618.88 87.552C617.344 87.552 616.064 87.104 615.04 86.208C614.016 85.312 613.504 84.1813 613.504 82.816C613.504 81.7067 613.952 80.768 614.848 80C615.744 79.232 616.79 78.848 617.984 78.848C618.923 78.848 620.032 79.0613 621.312 79.488C622.08 79.744 622.806 79.872 623.488 79.872C626.048 79.872 627.371 77.0987 627.456 71.552C627.456 70.528 627.499 68.5227 627.584 65.536L627.712 60.032V53.12C627.712 44.416 626.859 38.5707 625.152 35.584C622.678 31.1467 618.326 28.928 612.096 28.928C605.355 28.928 600.448 31.232 597.376 35.84C595.243 38.9973 594.134 44.0747 594.048 51.072L593.92 60.288C593.92 60.8 593.878 61.6533 593.792 62.848C593.792 63.9573 593.792 64.768 593.792 65.28C593.792 70.144 593.835 72.96 593.92 73.728C594.347 77.9093 595.584 80 597.632 80C598.315 80 599.275 79.8507 600.512 79.552C601.75 79.2533 602.667 79.104 603.264 79.104C605.995 79.104 607.36 80.4267 607.36 83.072C607.36 86.0587 605.483 87.552 601.728 87.552C600.534 87.552 598.742 87.424 596.352 87.168C593.11 86.8267 590.336 86.656 588.032 86.656C586.582 86.656 584.576 86.784 582.016 87.04C578.603 87.3813 576.427 87.552 575.488 87.552C571.99 87.552 570.24 86.016 570.24 82.944C570.24 80.384 571.862 79.104 575.104 79.104C576.214 79.104 577.024 79.1893 577.536 79.36C578.987 79.616 580.011 79.744 580.608 79.744C581.974 79.744 582.891 78.4427 583.36 75.84C583.83 73.2373 584.107 67.9253 584.192 59.904L584.32 36.992C584.32 24.192 584.064 16.1067 583.552 12.736C583.04 9.36533 581.846 7.68 579.968 7.68C579.371 7.68 578.475 7.808 577.28 8.064C576.086 8.32 575.147 8.448 574.464 8.448C571.563 8.448 570.112 7.08267 570.112 4.352C570.112 3.15733 570.624 2.13333 571.648 1.28C572.672 0.426667 573.91 0 575.36 0C575.787 0 577.238 0.128 579.712 0.384C581.334 0.554667 583.083 0.64 584.96 0.64C585.728 0.64 586.795 0.554667 588.16 0.384C589.526 0.213333 590.507 0.128 591.104 0.128C593.067 0.128 594.048 1.536 594.048 4.352V4.608Z" fill="#333333" fill-opacity="0.66"/>
<path d="M713.6 49.408C713.6 52.6507 713.387 54.6347 712.96 55.36C712.534 56.0854 711.296 56.448 709.248 56.448H668.544C667.435 56.448 666.71 56.5973 666.368 56.896C666.027 57.1947 665.856 57.6853 665.856 58.368C665.856 64.768 667.776 70.1013 671.616 74.368C675.456 78.6347 680.235 80.768 685.952 80.768C689.707 80.768 693.142 79.744 696.256 77.696C699.371 75.648 701.398 73.0453 702.336 69.888L703.488 66.176C704.086 64.128 705.494 63.104 707.712 63.104C710.87 63.104 712.448 64.7253 712.448 67.968C712.448 73.5147 709.632 78.4427 704 82.752C698.368 87.0613 691.968 89.216 684.8 89.216C675.84 89.216 668.715 86.208 663.424 80.192C658.134 74.176 655.488 66.0907 655.488 55.936C655.488 45.5253 658.304 37.0773 663.936 30.592C669.568 24.1067 676.907 20.864 685.952 20.864C693.974 20.864 700.587 23.552 705.792 28.928C710.998 34.304 713.6 41.1307 713.6 49.408ZM667.136 46.08C667.136 47.2747 668.075 47.872 669.952 47.872H700.544C702.336 47.872 703.232 47.2747 703.232 46.08C703.232 41.5573 701.526 37.632 698.112 34.304C694.699 30.976 690.688 29.312 686.08 29.312C681.302 29.312 676.95 31.04 673.024 34.496C669.099 37.952 667.136 41.8133 667.136 46.08Z" fill="#333333" fill-opacity="0.66"/>
<path d="M743.168 35.328L757.888 78.592L773.504 35.968C773.931 34.7734 774.144 33.8347 774.144 33.152C774.144 31.7014 773.163 30.976 771.2 30.976C770.176 30.976 769.365 31.0614 768.768 31.232C767.403 31.4027 766.507 31.488 766.08 31.488C763.264 31.488 761.856 30.1227 761.856 27.392C761.856 24.4907 763.691 23.04 767.36 23.04C767.872 23.04 768.725 23.1254 769.92 23.296L774.528 23.936C775.723 24.1067 777.003 24.192 778.368 24.192C779.819 24.192 781.952 24.0214 784.768 23.68C787.584 23.3387 789.717 23.168 791.168 23.168C794.837 23.168 796.672 24.576 796.672 27.392C796.672 30.1227 795.264 31.488 792.448 31.488C791.595 31.488 790.955 31.4027 790.528 31.232C789.419 30.976 788.651 30.848 788.224 30.848C786.603 30.848 784.939 33.024 783.232 37.376L765.824 80.896C761.984 90.5387 758.357 97.536 754.944 101.888C749.141 109.312 741.888 113.024 733.184 113.024C727.979 113.024 723.605 111.701 720.064 109.056C716.523 106.411 714.752 103.211 714.752 99.456C714.752 96.8107 715.52 94.656 717.056 92.992C718.592 91.328 720.597 90.496 723.072 90.496C725.035 90.496 726.656 91.072 727.936 92.224C729.216 93.376 729.856 94.8054 729.856 96.512C729.856 99.2427 728.619 100.992 726.144 101.76C727.424 103.637 729.856 104.576 733.44 104.576C737.963 104.576 742.037 102.891 745.664 99.52C749.291 96.1494 751.104 92.3734 751.104 88.192C751.104 86.0587 749.952 82.0907 747.648 76.288L733.568 40.704C733.568 40.704 733.056 39.3387 732.032 36.608C730.581 32.768 728.917 30.848 727.04 30.848C726.528 30.848 725.611 30.976 724.288 31.232C722.965 31.488 722.091 31.616 721.664 31.616C718.677 31.616 717.184 30.2507 717.184 27.52C717.184 24.6187 719.147 23.168 723.072 23.168C724.352 23.168 725.333 23.2107 726.016 23.296L731.136 23.936C731.221 23.936 731.563 23.936 732.16 23.936C732.757 24.0214 733.269 24.064 733.696 24.064C736.768 24.064 740.053 23.8934 743.552 23.552C746.197 23.296 747.947 23.168 748.8 23.168C752.384 23.168 754.176 24.576 754.176 27.392C754.176 30.208 752.555 31.616 749.312 31.616C748.8 31.616 747.989 31.5094 746.88 31.296C745.771 31.0827 744.96 30.976 744.448 30.976C743.253 30.976 742.656 31.5734 742.656 32.768C742.656 33.4507 742.827 34.304 743.168 35.328Z" fill="#333333" fill-opacity="0.66"/>
<path d="M836.352 25.3441V39.1681L854.912 22.0161C857.899 19.2854 859.393 17.2801 859.393 16.0001C859.393 15.3174 859.222 14.8054 858.88 14.4641C858.539 14.1228 857.984 13.7388 857.216 13.3121C855.595 12.1174 854.784 10.5388 854.784 8.5761C854.784 6.35743 855.553 4.56543 857.089 3.2001C858.625 1.83477 860.63 1.1521 863.104 1.1521C864.726 1.1521 867.094 1.36543 870.208 1.7921C873.323 2.21877 875.691 2.4321 877.312 2.4321C879.104 2.4321 881.579 2.1761 884.737 1.6641C886.87 1.32277 888.704 1.1521 890.24 1.1521C893.056 1.1521 895.297 1.94143 896.961 3.5201C898.625 5.09877 899.456 7.25343 899.456 9.9841C899.456 12.4588 898.795 14.5708 897.472 16.3201C896.15 18.0694 894.592 18.9441 892.8 18.9441C892.203 18.9441 891.371 18.7948 890.305 18.4961C889.238 18.1974 888.406 18.0481 887.808 18.0481C886.784 18.0481 885.334 18.7734 883.456 20.2241L881.152 22.0161L868.737 32.8961C866.177 35.1148 864.896 36.6934 864.896 37.6321C864.896 38.1441 865.366 39.2108 866.305 40.8321L869.633 46.7201L878.72 62.2081C882.048 67.9254 884.694 70.7841 886.656 70.7841C887.168 70.7841 888.043 70.6348 889.281 70.3361C890.518 70.0374 891.478 69.8881 892.16 69.8881C896.768 69.8881 899.073 72.7041 899.073 78.3361C899.073 81.1521 898.219 83.4134 896.513 85.1201C894.806 86.8268 892.545 87.6801 889.729 87.6801C888.107 87.6801 886.187 87.5094 883.969 87.1681C880.641 86.6561 877.654 86.4001 875.008 86.4001C873.472 86.4001 871.19 86.6134 868.16 87.0401C865.131 87.4668 862.849 87.6801 861.312 87.6801C859.094 87.6801 857.216 86.9974 855.68 85.6321C854.144 84.2668 853.376 82.5601 853.376 80.5121C853.376 78.5494 854.571 76.5868 856.961 74.6241C858.07 73.7708 858.625 72.8321 858.625 71.8081C858.625 70.8694 857.942 69.2054 856.576 66.8161L849.792 55.0401C848.256 52.3094 847.19 50.9441 846.592 50.9441C846.08 50.9441 845.611 51.1574 845.185 51.5841L843.904 52.8641L836.352 59.1361V63.4881C836.352 66.3894 836.352 67.8828 836.352 67.9681C836.608 69.7601 837.462 70.6561 838.912 70.6561C838.998 70.6561 839.211 70.6134 839.552 70.5281C839.894 70.5281 840.15 70.5281 840.32 70.5281C840.576 70.4428 840.96 70.4001 841.472 70.4001C845.227 70.4001 847.104 73.0454 847.104 78.3361C847.104 81.1521 846.336 83.4134 844.8 85.1201C843.264 86.8268 841.174 87.6801 838.529 87.6801C837.334 87.6801 835.585 87.5094 833.281 87.1681C830.635 86.8268 828.843 86.6134 827.904 86.5281C826.624 86.4428 825.131 86.4001 823.424 86.4001C821.462 86.4001 818.624 86.6134 814.912 87.0401C811.2 87.4668 808.406 87.6801 806.529 87.6801C803.798 87.6801 801.579 86.8268 799.872 85.1201C798.166 83.4134 797.312 81.1521 797.312 78.3361C797.312 75.8614 797.974 73.8348 799.297 72.2561C800.619 70.6774 802.304 69.8881 804.352 69.8881C805.035 69.8881 806.038 70.0374 807.36 70.3361C808.683 70.6348 809.686 70.7841 810.368 70.7841C812.672 70.7841 813.824 67.8828 813.824 62.0801V26.6241C813.824 23.8934 813.739 22.1441 813.568 21.3761C813.142 19.1574 812.075 18.0481 810.368 18.0481C809.686 18.0481 808.683 18.1974 807.36 18.4961C806.038 18.7948 804.992 18.9441 804.224 18.9441C802.262 18.9441 800.619 18.1334 799.297 16.5121C797.974 14.8908 797.312 12.8854 797.312 10.4961C797.312 7.59477 798.144 5.3121 799.808 3.6481C801.472 1.9841 803.713 1.1521 806.529 1.1521C808.406 1.1521 811.286 1.36543 815.169 1.7921C819.051 2.21877 822.017 2.4321 824.065 2.4321C825.686 2.4321 828.118 2.21877 831.36 1.7921C834.603 1.36543 837.035 1.1521 838.656 1.1521C841.216 1.1521 843.264 2.00543 844.8 3.7121C846.336 5.41877 847.104 7.72277 847.104 10.6241C847.104 15.7441 845.227 18.3041 841.472 18.3041H840.32C839.979 18.2188 839.467 18.1761 838.784 18.1761C837.419 18.1761 836.608 19.0721 836.352 20.8641C836.352 20.9494 836.352 22.4428 836.352 25.3441Z" fill="#333333"/>
<path d="M929.92 26.24V32.384C936.49 24.704 943.914 20.864 952.192 20.864C961.066 20.864 967.338 24.192 971.008 30.848C972.97 34.2613 973.952 39.6373 973.952 46.976V66.176C973.952 70.528 974.805 72.704 976.512 72.704C976.938 72.704 977.578 72.576 978.432 72.32C978.858 72.1493 979.498 72.064 980.352 72.064C984.106 72.064 985.984 74.2827 985.984 78.72C985.984 84.608 983.424 87.552 978.304 87.552C976.938 87.552 974.89 87.3813 972.16 87.04C969.429 86.6987 967.381 86.528 966.016 86.528C963.882 86.528 961.621 86.6987 959.232 87.04C956.842 87.3813 954.88 87.552 953.344 87.552C948.309 87.552 945.792 84.9493 945.792 79.744C945.792 75.2214 947.541 72.832 951.04 72.576C953.344 72.4053 954.496 71.3387 954.496 69.376V51.456C954.496 46.5067 953.856 43.0293 952.576 41.024C951.296 39.0187 949.12 38.016 946.048 38.016C942.549 38.016 939.669 39.2107 937.408 41.6C935.146 43.9893 934.016 47.0187 934.016 50.688V64C934.016 67.84 934.186 70.1653 934.528 70.976C934.869 71.7867 935.85 72.32 937.472 72.576C940.544 73.0027 942.08 75.3067 942.08 79.488C942.08 84.864 939.818 87.552 935.296 87.552C934.016 87.552 932.437 87.424 930.56 87.168C927.402 86.7413 925.056 86.528 923.52 86.528C921.984 86.528 919.701 86.6987 916.672 87.04C913.642 87.3813 911.36 87.552 909.824 87.552C904.448 87.552 901.76 84.6933 901.76 78.976C901.76 74.1973 903.808 71.808 907.904 71.808C908.586 71.808 909.354 71.9573 910.208 72.256C911.061 72.5547 911.701 72.704 912.128 72.704C913.578 72.704 914.304 70.3147 914.304 65.536V44.8C914.304 39.936 913.578 37.504 912.128 37.504C911.786 37.504 911.125 37.6533 910.144 37.952C909.162 38.2507 908.416 38.4 907.904 38.4C903.808 38.4 901.76 36.0533 901.76 31.36C901.76 28.8 902.464 26.7093 903.872 25.088C905.28 23.4667 907.136 22.656 909.44 22.656C910.122 22.656 911.573 22.8693 913.792 23.296C915.072 23.552 916.181 23.68 917.12 23.68C918.144 23.68 919.893 23.5093 922.368 23.168C924.842 22.8267 926.208 22.656 926.464 22.656C928.768 22.656 929.92 23.8507 929.92 26.24Z" fill="#333333"/>
<path d="M1022.72 89.216C1012.14 89.216 1003.97 86.2293 998.208 80.256C992.448 74.2827 989.568 65.8773 989.568 55.04C989.568 44.288 992.427 35.904 998.144 29.888C1003.86 23.872 1011.88 20.864 1022.21 20.864C1032.36 20.864 1040.36 23.8507 1046.21 29.824C1052.05 35.7973 1054.98 43.9893 1054.98 54.4C1054.98 65.3227 1052.14 73.856 1046.46 80C1040.79 86.144 1032.88 89.216 1022.72 89.216ZM1022.21 36.608C1018.45 36.608 1015.49 38.2507 1013.31 41.536C1011.14 44.8213 1010.05 49.3227 1010.05 55.04C1010.05 60.8427 1011.14 65.3653 1013.31 68.608C1015.49 71.8507 1018.54 73.472 1022.46 73.472C1030.4 73.472 1034.37 67.328 1034.37 55.04C1034.37 42.752 1030.32 36.608 1022.21 36.608Z" fill="#333333"/>
<path d="M1088.64 42.368L1094.14 69.76L1102.34 32C1103.19 28.2453 1104.45 25.7493 1106.11 24.512C1107.78 23.2747 1110.83 22.656 1115.26 22.656C1120.3 22.656 1123.61 23.2747 1125.18 24.512C1126.76 25.7493 1128.02 28.7573 1128.96 33.536L1136.26 69.76L1143.04 41.088C1143.21 40.4053 1143.3 39.808 1143.3 39.296C1143.3 38.016 1142.27 37.376 1140.22 37.376C1136.04 37.2907 1133.95 34.9013 1133.95 30.208C1133.95 25.1733 1136.38 22.656 1141.25 22.656C1142.7 22.656 1144.83 22.8267 1147.65 23.168C1150.46 23.5093 1152.6 23.68 1154.05 23.68C1155.41 23.68 1157.46 23.5093 1160.19 23.168C1162.92 22.8267 1164.97 22.656 1166.34 22.656C1168.56 22.656 1170.35 23.3813 1171.71 24.832C1173.08 26.2827 1173.76 28.2027 1173.76 30.592C1173.76 32.8107 1173.21 34.624 1172.1 36.032C1170.99 37.44 1169.58 38.144 1167.87 38.144C1167.27 38.144 1166.85 38.1013 1166.59 38.016C1165.4 37.8453 1164.76 37.76 1164.67 37.76C1163.56 37.76 1162.58 39.296 1161.73 42.368C1161.73 42.4533 1161.34 43.648 1160.58 45.952L1149.95 79.232C1148.25 84.6933 1145.98 87.424 1143.17 87.424C1142.32 87.424 1141.04 87.296 1139.33 87.04C1137.62 86.784 1136.34 86.656 1135.49 86.656C1134.64 86.656 1133.4 86.784 1131.78 87.04C1130.16 87.296 1128.96 87.424 1128.19 87.424C1125.04 87.424 1122.82 84.096 1121.54 77.44L1115.26 43.776L1107.84 76.416C1106.73 81.28 1105.81 84.3307 1105.09 85.568C1104.36 86.8053 1103.1 87.424 1101.31 87.424C1100.37 87.424 1099.09 87.296 1097.47 87.04C1095.85 86.784 1094.44 86.656 1093.25 86.656C1092.31 86.656 1090.94 86.784 1089.15 87.04C1087.36 87.296 1086 87.424 1085.06 87.424C1082.41 87.424 1080.49 85.248 1079.3 80.896L1069.06 41.984C1068.46 39.3387 1067.31 38.016 1065.6 38.016C1065.26 38.016 1064.73 38.08 1064 38.208C1063.28 38.336 1062.74 38.4 1062.4 38.4C1058.82 38.4 1057.02 35.9253 1057.02 30.976C1057.02 25.4293 1059.54 22.656 1064.58 22.656C1065.94 22.656 1067.97 22.8267 1070.66 23.168C1073.34 23.5093 1075.37 23.68 1076.74 23.68C1078.19 23.68 1080.41 23.5093 1083.39 23.168C1086.38 22.8267 1088.6 22.656 1090.05 22.656C1094.66 22.656 1096.96 25.216 1096.96 30.336C1096.96 34.688 1095.3 36.992 1091.97 37.248C1090.35 37.4187 1089.34 37.6107 1088.96 37.824C1088.58 38.0373 1088.38 38.5707 1088.38 39.424V40.576C1088.38 40.9173 1088.47 41.5147 1088.64 42.368Z" fill="#333333"/>
</svg>
