<svg fill="none" height="24" viewBox="0 0 24 24" width="24" xmlns="http://www.w3.org/2000/svg" xmlns:xlink="http://www.w3.org/1999/xlink"><clipPath id="a"><path d="m0 0h24v24h-24z"/></clipPath><g clip-path="url(#a)"><path d="m12.0765 2.9985h.1335c1.233.0045 7.4805.0495 9.165.5025.5092.13825.9733.40773 1.3457.78151.3725.37378.6403.83877.7768 1.34849.1515.57.258 1.3245.33 2.103l.015.156.033.39.012.156c.0975 1.371.1095 2.655.111 2.9355v.1125c-.0015.291-.015 1.662-.123 3.09l-.012.1575-.0135.156c-.075.858-.186 1.71-.3525 2.337-.136.5099-.4037.9751-.7763 1.349-.3725.3738-.8368.6432-1.3462.781-1.74.468-8.3535.501-9.27.5025h-.213c-.4635 0-2.3805-.009-4.3905-.078l-.255-.009-.1305-.006-.2565-.0105-.2565-.0105c-1.665-.0735-3.2505-.192-3.981-.39-.50927-.1377-.9734-.4068-1.34591-.7804-.372515-.3736-.64032-.8384-.77659-1.3481-.1665-.6255-.2775-1.479-.3525-2.337l-.012-.1575-.012-.156c-.0740286-1.0164-.1150502-2.0349-.123-3.054v-.1845c.003-.3225.015-1.437.096-2.667l.0105-.1545.0045-.078.012-.156.033-.39.015-.156c.072-.7785.1785-1.5345.33-2.103.13604-.50993.403743-.97513.77627-1.34898.37253-.37384.83678-.64318 1.34623-.78102.7305-.195 2.316-.315 3.981-.39l.255-.0105.258-.009.129-.0045.2565-.0105c1.42756-.04594 2.8557-.07144 4.284-.0765h.2895zm-2.4765 4.815v7.227l6.2355-3.612z" fill="#333"/></g></svg>